<?xml version="1.0" encoding="utf-8"?><svg xmlns="http://www.w3.org/2000/svg" xmlns:xlink="http://www.w3.org/1999/xlink"><symbol viewBox="0 0 23 32" id="euro" xmlns="http://www.w3.org/2000/svg"><defs><style>.acls-1{fill:#fff;fill-rule:evenodd}</style></defs><path id="aИконка_евро" data-name="Иконка евро" class="acls-1" d="M947.979 4935.41l-.8-3.61a.712.712 0 0 0-.34-.48.687.687 0 0 0-.592-.04l-.113.04-.273.07c-.122.03-.262.06-.421.1s-.344.08-.557.12-.436.07-.67.1-.488.05-.761.08-.546.03-.819.03a9.165 9.165 0 0 1-8.592-5.77h8.8a.712.712 0 0 0 .455-.17.734.734 0 0 0 .25-.42l.545-2.55a.726.726 0 0 0-.136-.61.7.7 0 0 0-.568-.28h-10.433a20.091 20.091 0 0 1 0-2.38h11.093a.666.666 0 0 0 .727-.59l.545-2.6a.741.741 0 0 0-.727-.86h-10.638a8.964 8.964 0 0 1 3.41-4 9.325 9.325 0 0 1 5.137-1.46 2 2 0 0 1 .67.03 5.072 5.072 0 0 0 .66.05c.052 0 .249.02.59.07s.512.08.512.08l.4.08a1.936 1.936 0 0 1 .261.06l.091.02a.673.673 0 0 0 .864-.5l.978-3.61a.769.769 0 0 0-.068-.55.85.85 0 0 0-.455-.34 18.057 18.057 0 0 0-4.41-.52 15.118 15.118 0 0 0-9.1 2.91 14.808 14.808 0 0 0-5.535 7.68h-2.228a.728.728 0 0 0-.522.2.716.716 0 0 0-.2.53v2.59a.709.709 0 0 0 .727.73h1.524a24.38 24.38 0 0 0-.023 2.38h-1.5a.745.745 0 0 0-.727.73v2.57a.685.685 0 0 0 .216.51.718.718 0 0 0 .511.22h2.16a14.685 14.685 0 0 0 5.41 7.99 15.168 15.168 0 0 0 9.3 2.96c.288 0 .58 0 .875-.02s.572-.04.83-.07.512-.06.762-.1.477-.08.681-.11.4-.08.58-.12a4.494 4.494 0 0 0 .489-.12 2.8 2.8 0 0 1 .363-.1 1.692 1.692 0 0 0 .239-.08l.114-.03a.712.712 0 0 0 .386-.33.662.662 0 0 0 .053-.51z" transform="translate(-925 -4905)"/></symbol></svg>