<?xml version="1.0" encoding="utf-8"?><svg xmlns="http://www.w3.org/2000/svg" xmlns:xlink="http://www.w3.org/1999/xlink"><symbol viewBox="0 0 23 32" id="euro" xmlns="http://www.w3.org/2000/svg"><defs><style>.acls-1{fill:#fff;fill-rule:evenodd}</style></defs><path id="aИконка_евро" data-name="Иконка евро" class="acls-1" d="M947.979 4935.41l-.8-3.61a.712.712 0 0 0-.34-.48.687.687 0 0 0-.592-.04l-.113.04-.273.07c-.122.03-.262.06-.421.1s-.344.08-.557.12-.436.07-.67.1-.488.05-.761.08-.546.03-.819.03a9.165 9.165 0 0 1-8.592-5.77h8.8a.712.712 0 0 0 .455-.17.734.734 0 0 0 .25-.42l.545-2.55a.726.726 0 0 0-.136-.61.7.7 0 0 0-.568-.28h-10.433a20.091 20.091 0 0 1 0-2.38h11.093a.666.666 0 0 0 .727-.59l.545-2.6a.741.741 0 0 0-.727-.86h-10.638a8.964 8.964 0 0 1 3.41-4 9.325 9.325 0 0 1 5.137-1.46 2 2 0 0 1 .67.03 5.072 5.072 0 0 0 .66.05c.052 0 .249.02.59.07s.512.08.512.08l.4.08a1.936 1.936 0 0 1 .261.06l.091.02a.673.673 0 0 0 .864-.5l.978-3.61a.769.769 0 0 0-.068-.55.85.85 0 0 0-.455-.34 18.057 18.057 0 0 0-4.41-.52 15.118 15.118 0 0 0-9.1 2.91 14.808 14.808 0 0 0-5.535 7.68h-2.228a.728.728 0 0 0-.522.2.716.716 0 0 0-.2.53v2.59a.709.709 0 0 0 .727.73h1.524a24.38 24.38 0 0 0-.023 2.38h-1.5a.745.745 0 0 0-.727.73v2.57a.685.685 0 0 0 .216.51.718.718 0 0 0 .511.22h2.16a14.685 14.685 0 0 0 5.41 7.99 15.168 15.168 0 0 0 9.3 2.96c.288 0 .58 0 .875-.02s.572-.04.83-.07.512-.06.762-.1.477-.08.681-.11.4-.08.58-.12a4.494 4.494 0 0 0 .489-.12 2.8 2.8 0 0 1 .363-.1 1.692 1.692 0 0 0 .239-.08l.114-.03a.712.712 0 0 0 .386-.33.662.662 0 0 0 .053-.51z" transform="translate(-925 -4905)"/></symbol><symbol viewBox="0 0 36.07 36.06" id="fb" xmlns="http://www.w3.org/2000/svg"><defs><style>.bcls-1{fill:#5b5b5b;fill-rule:evenodd}</style></defs><path id="bfb" class="bcls-1" d="M1208.88 6333.94a6.235 6.235 0 0 0-6.02-6.01h-24.04a6.226 6.226 0 0 0-6.01 6.01v24.05a6.226 6.226 0 0 0 6.01 6.01h12.02v-13.63h-4.4v-6.01h4.4v-2.34c0-4.04 3.04-7.68 6.77-7.68h4.85v6.01h-4.85a1.471 1.471 0 0 0-1.16 1.61v2.4h6.01v6.01h-6.01V6364h6.41a6.235 6.235 0 0 0 6.02-6.01v-24.05z" transform="translate(-1172.81 -6327.94)"/></symbol><symbol viewBox="0 0 36.06 36.06" id="inst" xmlns="http://www.w3.org/2000/svg"><defs><style>.ccls-1{fill:#5b5b5b;fill-rule:evenodd}</style></defs><path id="cinst" class="ccls-1" d="M1067.11 6327.93h-16.16a9.957 9.957 0 0 0-9.95 9.95v16.16a9.965 9.965 0 0 0 9.95 9.96h16.16a9.965 9.965 0 0 0 9.95-9.96v-16.16a9.957 9.957 0 0 0-9.95-9.95zm6.75 26.11a6.762 6.762 0 0 1-6.75 6.76h-16.16a6.762 6.762 0 0 1-6.75-6.76v-16.16a6.76 6.76 0 0 1 6.75-6.75h16.16a6.76 6.76 0 0 1 6.75 6.75v16.16zm-14.83-17.37a9.3 9.3 0 1 0 9.29 9.29 9.3 9.3 0 0 0-9.29-9.29zm0 15.39a6.1 6.1 0 1 1 6.09-6.1 6.1 6.1 0 0 1-6.09 6.1zm9.68-18.11a2.356 2.356 0 1 0 1.66.69 2.332 2.332 0 0 0-1.66-.69z" transform="translate(-1041 -6327.94)"/></symbol><symbol viewBox="0 0 31 22" id="mail" xmlns="http://www.w3.org/2000/svg"><defs><style>.dcls-1{fill-rule:evenodd}</style></defs><path id="dmail" class="dcls-1" d="M1064.1 6274.99a.484.484 0 0 1-.34-.13l-5.75-5.39a.5.5 0 0 1-.03-.71.5.5 0 0 1 .71-.02l5.75 5.39a.492.492 0 0 1 .02.7.465.465 0 0 1-.36.16zm-19.2 0a.5.5 0 0 1-.34-.86l5.75-5.39a.514.514 0 0 1 .71.02.5.5 0 0 1-.02.71l-5.76 5.39a.484.484 0 0 1-.34.13zm22.6 5.01h-26a2.5 2.5 0 0 1-2.5-2.49v-17.02a2.5 2.5 0 0 1 2.5-2.49h26a2.5 2.5 0 0 1 2.5 2.49v17.02a2.5 2.5 0 0 1-2.5 2.49zm-26-21a1.5 1.5 0 0 0-1.5 1.49v17.02a1.5 1.5 0 0 0 1.5 1.49h26a1.5 1.5 0 0 0 1.5-1.49v-17.02a1.5 1.5 0 0 0-1.5-1.49h-26zm13 12.51a2.827 2.827 0 0 1-1.84-.66l-12.83-11.18a.505.505 0 0 1-.05-.71.525.525 0 0 1 .71-.05l12.83 11.18a1.868 1.868 0 0 0 2.36 0l12.82-11.16a.494.494 0 0 1 .7.05.506.506 0 0 1-.05.71l-12.81 11.16a2.827 2.827 0 0 1-1.84.66z" transform="translate(-1039 -6258)"/></symbol><symbol viewBox="0 0 27.97 27.97" id="phone" xmlns="http://www.w3.org/2000/svg"><defs><style>.ecls-1{fill-rule:evenodd}</style></defs><path id="ephone" class="ecls-1" d="M1067.98 6221.04a2.171 2.171 0 0 0-1.06-1.59l-6.91-3.97a2.163 2.163 0 0 0-2.61.34l-1.36 1.36a1 1 0 0 1-1.33.08 40.758 40.758 0 0 1-5.97-5.97 1 1 0 0 1 .08-1.33l1.36-1.36a2.163 2.163 0 0 0 .34-2.61l-3.97-6.91a2.171 2.171 0 0 0-1.6-1.06 2.137 2.137 0 0 0-1.81.61l-2.05 2.05c-1.43 1.43-1.45 4.05-.06 7.37a36.045 36.045 0 0 0 16.92 16.92 11.382 11.382 0 0 0 4.33 1.03 4.132 4.132 0 0 0 3.04-1.09l2.05-2.05a2.147 2.147 0 0 0 .61-1.82zm-8.42-4.78l6.9 3.98a1.265 1.265 0 0 1 .39 1.84l-9.18-5.24.37-.38a1.269 1.269 0 0 1 1.52-.2zm-14.72-17.34a1.248 1.248 0 0 1 .92.62l3.98 6.9a1.269 1.269 0 0 1-.2 1.52l-.35.34-5.26-9.15a1.214 1.214 0 0 1 .74-.24 1.028 1.028 0 0 1 .17.01zm19.83 25.35c-1.13 1.13-3.46 1.09-6.37-.13a35.356 35.356 0 0 1-16.44-16.44c-1.22-2.91-1.27-5.24-.13-6.37l1.52-1.53 5.28 9.17-.35.35a1.9 1.9 0 0 0-.14 2.54 39.982 39.982 0 0 0 6.1 6.1 1.9 1.9 0 0 0 2.54-.14l.32-.32 9.19 5.25z" transform="translate(-1040 -6198.03)"/></symbol><symbol viewBox="0 0 24 34" id="place" xmlns="http://www.w3.org/2000/svg"><defs><style>.fcls-1{fill-rule:evenodd}</style></defs><path id="fplace" class="fcls-1" d="M1051.11 6132.45a4.345 4.345 0 1 0 4.38 4.35 4.372 4.372 0 0 0-4.38-4.35zm0 7.45a3.105 3.105 0 1 1 3.13-3.1 3.122 3.122 0 0 1-3.13 3.1zm8.37-11.41a12.059 12.059 0 0 0-16.97 0c-4.19 4.16-4.71 11.99-1.12 16.73L1051 6159l9.6-13.76c3.6-4.76 3.08-12.59-1.12-16.75zm.1 16.03l-8.58 12.29-8.6-12.31c-3.25-4.31-2.79-11.38 1-15.13a10.792 10.792 0 0 1 15.2 0c3.79 3.75 4.25 10.82.98 15.15z" transform="translate(-1039 -6125)"/></symbol><symbol viewBox="0 0 36.06 36.06" id="vk" xmlns="http://www.w3.org/2000/svg"><defs><style>.gcls-1{fill:#5b5b5b;fill-rule:evenodd}</style></defs><path id="gvk" class="gcls-1" d="M1126.88 6347.81a4.136 4.136 0 0 0-2.03-.34h-2.15v4.42h1.97a4.077 4.077 0 0 0 2.29-.39 2.314 2.314 0 0 0 .9-1.88 2.228 2.228 0 0 0-.98-1.81zm-.81-3.78a2.037 2.037 0 0 0 .73-1.6 1.857 1.857 0 0 0-.85-1.61 5.241 5.241 0 0 0-2.31-.26h-.94v3.89h1.24a3.36 3.36 0 0 0 2.13-.42zm10.56-16.1h-23.39a6.327 6.327 0 0 0-6.33 6.34v23.39a6.333 6.333 0 0 0 6.33 6.34h23.39a6.342 6.342 0 0 0 6.34-6.34v-23.39a6.336 6.336 0 0 0-6.34-6.34zm-10.71 27.25h-7.37v-17.78h8.05c2.33 0 4.48 1.48 4.48 4.1a3.791 3.791 0 0 1-2.57 3.84v.05c2.14.44 3.66 1.6 3.66 4.4 0 2.59-1.76 5.39-6.25 5.39z" transform="translate(-1106.91 -6327.94)"/></symbol><symbol viewBox="0 0 42.28 51" id="youtube" xmlns="http://www.w3.org/2000/svg"><defs><style>.hcls-1{fill-rule:evenodd}</style></defs><path id="hyoutube" class="hcls-1" d="M1274.48 6350.3h-2.78l.01-1.62a1.323 1.323 0 0 1 1.31-1.32h.18a1.332 1.332 0 0 1 1.32 1.32zm-10.44-3.48a1.2 1.2 0 0 0-1.29 1.06v7.91a1.315 1.315 0 0 0 2.58 0v-7.91a1.2 1.2 0 0 0-1.29-1.06zm16.96-4.42v15.04a6.763 6.763 0 0 1-6.92 6.56h-28.44a6.763 6.763 0 0 1-6.92-6.56v-15.04a6.763 6.763 0 0 1 6.92-6.56h28.44a6.763 6.763 0 0 1 6.92 6.56zm-33.46 16.67l-.01-15.84h3.53v-2.35l-9.4-.01v2.31h2.93v15.89h2.95zm10.57-13.48h-2.94v8.46a14.318 14.318 0 0 1-.01 2.05c-.24.66-1.31 1.35-1.73.07a16.769 16.769 0 0 1-.01-2.06l-.01-8.52h-2.93l.01 8.38c0 1.29-.03 2.25.01 2.68a2.7 2.7 0 0 0 .76 2.18c1.32.96 3.86-.14 4.49-1.51l-.01 1.75h2.37v-13.48zm9.4 9.69l-.01-7.05c0-2.68-2-4.29-4.71-2.11l.01-5.24h-2.93l-.02 18.08 2.42-.04.22-1.13c3.08 2.85 5.02.9 5.02-2.51zm9.2-.94l-2.2.02a2.532 2.532 0 0 0-.01.29v1.24a1.2 1.2 0 0 1-1.2 1.2h-.44a1.2 1.2 0 0 1-1.2-1.2v-3.25h5.05v-1.91a31.424 31.424 0 0 0-.15-3.59c-.36-2.52-3.89-2.92-5.67-1.63a3.246 3.246 0 0 0-1.23 1.67 9.4 9.4 0 0 0-.38 2.97v4.2c0 6.98 8.44 6 7.43-.01zm-11.31-22.79a1.95 1.95 0 0 0 .71.89 2 2 0 0 0 1.2.34 1.85 1.85 0 0 0 1.13-.35 2.661 2.661 0 0 0 .82-1.06l-.05 1.16h3.28v-14.01h-2.58v10.9a1.075 1.075 0 1 1-2.15 0v-10.9h-2.7v9.45c0 1.2.03 2 .06 2.41a4.342 4.342 0 0 0 .28 1.17zm-9.93-7.91a11.393 11.393 0 0 1 .34-3.16 3.352 3.352 0 0 1 3.42-2.5 4.07 4.07 0 0 1 1.95.44 3.2 3.2 0 0 1 1.26 1.15 4.5 4.5 0 0 1 .61 1.46 11.658 11.658 0 0 1 .16 2.29v3.54a19.644 19.644 0 0 1-.15 2.87 4.649 4.649 0 0 1-.65 1.7 3.047 3.047 0 0 1-1.26 1.16 3.915 3.915 0 0 1-1.78.38 4.853 4.853 0 0 1-1.89-.32 2.662 2.662 0 0 1-1.21-.97 4.449 4.449 0 0 1-.62-1.57 15.729 15.729 0 0 1-.18-2.77v-3.7zm2.57 5.56a1.307 1.307 0 1 0 2.6 0v-7.46a1.307 1.307 0 1 0-2.6 0v7.46zm-9.07 3.77h3.09v-10.75l3.66-9.2h-3.38l-1.95 6.83-1.97-6.85h-3.34l3.88 9.23z" transform="translate(-1238.72 -6313)"/></symbol></svg>